Coordinates
version=1
nRows=9
nColumns=36
inDegrees=yes

Units are S.I. units (second, meters, Newtons, ...)
If the header above contains a line with 'inDegrees', this indicates whether rotational values are in degrees (yes) or radians (no).

endheader
time	pelvis_tilt	pelvis_list	pelvis_rotation	pelvis_tx	pelvis_ty	pelvis_tz	hip_flexion_r	hip_adduction_r	hip_rotation_r	knee_angle_r	knee_angle_r_beta	ankle_angle_r	subtalar_angle_r	mtp_angle_r	hip_flexion_l	hip_adduction_l	hip_rotation_l	knee_angle_l	knee_angle_l_beta	ankle_angle_l	subtalar_angle_l	mtp_angle_l	lumbar_extension	lumbar_bending	lumbar_rotation	arm_flex_r	arm_add_r	arm_rot_r	elbow_flex_r	pro_sup_r	arm_flex_l	arm_add_l	arm_rot_l	elbow_flex_l	pro_sup_l
      1.93333330	    -11.92509217	      0.90083439	     -2.91287794	      1.01381571	      0.99694815	     -0.61971548	     25.32114990	     -3.07255333	      0.02305944	     12.64124443	      0.22063134	     -0.68406183	     -0.93000298	     -7.49999987	     22.48597629	     -7.48130420	     -9.96202511	     10.14953727	      0.17714284	     -3.22356263	      3.90616283	     -7.49999987	     -7.66255218	     -2.56653010	     -2.35939332	    -31.28940225	    -42.22882339	    124.87625267	     28.91308504	      6.71895161	    -55.29373079	    -30.11937735	    -23.98106116	     76.46475545	    107.53164595
      1.95000000	    -11.63918364	      0.85916138	     -2.73661843	      1.01263377	      1.03938567	     -0.61835080	     21.87498913	     -3.25221482	     -1.68189278	      6.86829539	      0.11987437	     -5.44422577	      0.92853524	     -7.49999987	     18.87186582	     -7.10440688	    -11.28940124	      4.33152763	      0.07559942	     -8.53519667	      4.85440534	     -7.49999987	     -5.23622232	     -2.33770724	     -2.33395022	    -33.23517583	    -40.18924166	    128.45279546	     27.18045138	      5.38411971	    -48.04058215	    -25.96298056	    -24.01362512	     71.65682038	    107.30716023
      1.96666670	    -11.14107084	      0.64375400	     -2.42830469	      1.01365395	      1.07853764	     -0.61774166	     19.14129099	     -3.26091524	     -3.62807911	      3.30068320	      0.05760779	     -9.71741618	      2.29884735	     -7.49999987	     16.45139791	     -7.10277236	    -11.83401982	      1.15234634	      0.02011224	    -12.26561230	      5.27176367	     -7.49999987	     -3.01523863	     -1.96028419	     -1.35703819	    -35.24960241	    -36.91271369	    133.82292930	     24.92977363	      4.31542645	    -38.32636101	    -23.66471477	    -19.96785532	     60.93765075	    105.92666545
      1.98333330	    -10.62475738	      0.20403780	     -1.98689620	      1.01067083	      1.10222408	     -0.61589452	     17.17046451	     -3.06813114	     -5.33345927	      1.69532622	      0.02958902	    -13.41969987	      2.93506991	     -7.49999987	     14.68181736	     -7.38030918	    -11.79479229	      0.45619726	      0.00796214	    -14.50232862	      5.79707493	     -7.49999987	     -1.86144274	     -1.31370044	     -1.42473257	    -35.50361678	    -34.75239891	    135.51865504	     24.01619464	      3.86085359	    -31.40620416	    -19.92962662	    -19.72477771	     55.31149383	    101.71790209
      2.00000000	    -10.18319558	     -0.15989701	     -1.52030034	      1.00381894	      1.12812752	     -0.61380652	     15.70519801	     -2.83647213	     -6.50670567	      1.01278151	      0.01767637	    -16.61776178	      3.65315201	     -7.49999987	     13.46818218	     -7.57598479	    -11.20100353	      0.33615486	      0.00586701	    -16.42074772	      6.44653512	     -7.49999987	     -1.29696259	     -0.25274868	      2.18624669	    -42.95559563	    -21.12051783	    -82.51488799	      2.26061138	    108.12946930	    -21.58216065	    -19.34177116	    -11.83450129	     46.98931161	     96.43357619
      2.01666670	     -9.42657790	     -0.35017340	     -1.18857935	      0.99658643	      1.14566301	     -0.61660687	     14.54941125	     -2.73064497	     -7.51699461	      0.92724778	      0.01618353	    -19.54494998	      3.84833723	     -7.49999987	     12.21627932	     -7.44499139	    -10.68229474	      0.30325164	      0.00529274	    -18.13055779	      6.58452140	     -7.49999987	     -0.66936772	      0.13934325	      3.55879357	    -40.92500697	    -17.93038666	    -74.77350255	      2.25225895	    104.25567489	    -14.44548918	    -16.97291252	     -6.54396862	     37.17335515	     90.36769735
      2.03333330	     -9.00751931	     -0.35315537	     -0.75235214	      0.99250801	      1.16442080	     -0.62070620	     13.96163734	     -2.79865369	     -8.11023972	      0.96069281	      0.01676725	    -21.72400323	      3.29932064	     -7.49999987	     11.75936637	     -7.15959231	    -10.18060702	      0.29944386	      0.00522628	    -19.92539105	      6.30359113	     -7.49999987	     -0.29871904	     -0.27729083	      4.87950754	    -36.93019119	    -14.95830825	    -69.14669891	      1.94862926	    103.64436849	     -8.91587771	    -14.24439313	     -3.31493598	     28.72299400	     88.89278383
      2.05000000	     -8.09216503	      0.04187529	     -0.31215053	      0.96523000	      1.19541238	     -0.62528363	     13.89175909	     -3.37117753	     -8.81262138	      1.26556851	      0.02208834	    -22.64232087	      3.13171379	     -7.49999987	     11.81497347	     -6.49622002	    -10.45031492	      0.35467466	      0.00619024	    -21.52786869	      6.00290431	     -7.49999987	     -1.69009162	     -0.99420774	      4.45203318	    -30.37418808	    -13.37598162	    -44.10336009	      2.09982978	     86.05278580	     -2.93064876	    -12.56645818	     10.12340977	     21.11246171	     73.55022903
      2.06666670	     -7.60682236	      0.35893222	      0.03799752	      0.93909009	      1.20990805	     -0.61259133	     15.07759923	     -3.66427916	     -9.64360058	      1.62216566	      0.02831213	    -21.96498374	      2.74810473	     -7.49999987	     12.81120850	     -6.34168131	    -10.46739332	      0.51206246	      0.00893718	    -22.71681830	      5.51055192	     -7.49999987	     -4.25302088	     -1.79747210	      3.19346057	    -22.60834378	    -11.77972804	    -36.25789669	      2.07984944	     85.71405415	      0.98633557	    -12.10731301	     13.64930465	     19.04057366	     72.00992190
